<svg height='100px' width='100px'  fill="#000000" xmlns="http://www.w3.org/2000/svg" xmlns:xlink="http://www.w3.org/1999/xlink" version="1.1" x="0px" y="0px" viewBox="0 0 100 100" enable-background="new 0 0 100 100" xml:space="preserve"><path d="M81.64,26.974L63.093,8.427c-0.567-0.568-1.338-0.887-2.142-0.887H19.085c-1.673,0-3.029,1.356-3.029,3.029v81.62  c0,1.673,1.356,3.029,3.029,3.029h60.413c1.673,0,3.029-1.356,3.029-3.029V29.116C82.527,28.313,82.208,27.542,81.64,26.974z   M62.966,16.868l10.233,10.234H62.966V16.868z M22.115,89.159V13.598h36.822v15.518c0,1.113,0.902,2.015,2.015,2.015h15.518v58.028  H22.115z"></path></svg>